<svg width="56" height="60" viewBox="0 0 56 60" fill="none" xmlns="http://www.w3.org/2000/svg">
<g clip-path="url(#clip0_3102_8612)">
<path d="M19.3851 22.3314C28.1491 13.3989 39.5255 14.2416 47.0255 19.8876C54.1885 25.3651 57.475 34.9719 55.1154 43.5674C52.5873 52.5842 45.0031 58.9887 35.7334 59.9157C23.1772 61.1798 11.7166 51.4045 11.4637 38.9326C11.2109 26.5449 11.3795 14.073 11.2109 1.6011C11.2109 0.252785 11.7166 -0.0842932 12.8963 -2.35351e-05C14.3289 0.0842461 15.8458 0.0842461 17.2784 -2.35351e-05C18.8795 -0.168563 19.3851 0.337055 19.3851 2.02245C19.3851 8.00559 19.3851 13.9045 19.3851 19.8876C19.3851 20.5618 19.3851 21.1517 19.3851 22.3314ZM33.4581 51.3202C41.0424 51.4045 47.2784 45.3371 47.2784 37.7528C47.2784 30.3371 41.7166 24.4382 33.7952 24.1011C26.4637 23.764 20.0593 30.2528 19.975 37.6685C19.8907 45.1685 25.9581 51.3202 33.4581 51.3202Z" fill="#060606"/>
<path d="M0 54.5224C0 51.4887 2.35955 49.0449 5.39326 49.0449C8.51124 49.0449 11.0393 51.573 10.9551 54.6067C10.8708 57.5562 8.3427 60.0842 5.39326 60C2.44382 60 0 57.5562 0 54.5224Z" fill="#1206FE"/>
</g>
<defs>
<clipPath id="clip0_3102_8612">
<rect width="55.8708" height="60" fill="white"/>
</clipPath>
</defs>
</svg>
