<svg width="60" height="60" viewBox="0 0 60 60" fill="none" xmlns="http://www.w3.org/2000/svg">
<path d="M30.0932 15.8262C42.4459 6.23638 36.1061 0 36.1061 0C37.0496 9.91384 25.8994 12.2547 22.9105 19.0672C20.871 23.7159 24.3071 27.7862 30.0891 32.9164C29.578 31.7801 28.7895 30.6761 27.9915 29.5584C25.2692 25.7462 22.4335 21.7747 30.0932 15.8262Z" fill="#E76F00"/>
<path d="M32.0654 35.0194C32.0654 35.0194 35.7816 32.0211 32.8386 28.689C22.8621 17.3847 43.75 12.2547 43.75 12.2547C30.997 18.3984 32.9009 22.0451 36.1064 26.4754C39.5384 31.2259 32.0654 35.0194 32.0654 35.0194Z" fill="#E76F00"/>
<path d="M43.0069 43.9605C54.4544 38.1109 49.1616 32.4896 45.4673 33.2469C44.5617 33.4322 44.158 33.5929 44.158 33.5929C44.158 33.5929 44.4942 33.075 45.1362 32.8507C52.4447 30.3242 58.0654 40.3029 42.7769 44.2552C42.7769 44.2552 42.954 44.0996 43.0069 43.9605Z" fill="#5382A1"/>
<path d="M19.1869 36.5567C12.0246 35.6162 23.1141 33.0261 23.1141 33.0261C23.1141 33.0261 18.8076 32.7405 13.5111 35.2581C7.24833 38.2372 29.0027 39.5921 40.2638 36.6797C41.4345 35.8935 43.0526 35.2121 43.0526 35.2121C43.0526 35.2121 38.4444 36.0214 33.8552 36.4022C28.2398 36.8647 22.2111 36.9549 19.1869 36.5567Z" fill="#5382A1"/>
<path d="M21.912 42.1421C17.918 41.736 20.5332 39.8323 20.5332 39.8323C10.1981 43.2054 26.2834 47.0306 40.7248 42.8779C39.1898 42.3457 38.2137 41.3724 38.2137 41.3724C31.1556 42.7089 27.0769 42.6662 21.912 42.1421Z" fill="#5382A1"/>
<path d="M23.6522 48.1858C19.6613 47.7347 21.9928 46.4014 21.9928 46.4014C12.6112 48.9791 27.6992 54.3047 39.6437 49.2707C37.6873 48.5226 36.2865 47.6589 36.2865 47.6589C30.9583 48.6504 28.4871 48.7282 23.6522 48.1858Z" fill="#5382A1"/>
<path d="M48.6351 51.2602C48.6351 51.2602 50.3604 52.6582 46.7347 53.7397C39.8402 55.7936 18.0392 56.4139 11.983 53.8217C9.80595 52.8904 13.8886 51.5979 15.1728 51.3266C16.5121 51.041 17.2775 51.0943 17.2775 51.0943C14.8564 49.4171 1.62842 54.3875 10.5583 55.811C34.9116 59.6947 54.9519 54.062 48.6351 51.2602Z" fill="#5382A1"/>
<path d="M52.5 54.3148C52.1004 59.4276 35.2269 60.5031 24.2388 59.8114C17.0706 59.3593 15.6339 58.2296 15.6129 58.2131C22.4735 59.3254 34.0404 59.5279 43.419 57.7922C51.7318 56.253 52.5 54.3148 52.5 54.3148Z" fill="#5382A1"/>
</svg>
