<svg width="30" height="30" viewBox="0 0 30 30" fill="none" xmlns="http://www.w3.org/2000/svg">
<path d="M15.6028 29.3306C14.5783 29.3306 13.6263 28.9374 12.9019 28.213L0.256123 15.5362C-0.0853743 15.1947 -0.0853743 14.6359 0.256123 14.2944L12.9122 1.61763C13.6366 0.893239 14.5887 0.5 15.6131 0.5C16.6273 0.5 17.5897 0.893239 18.3141 1.61763L22.8053 6.12953C23.1468 6.47103 23.1468 7.02984 22.8053 7.37134L15.2716 14.9153L22.8053 22.4593C23.1468 22.8008 23.1468 23.3596 22.8053 23.7011L18.2934 28.213C17.5793 28.9374 16.6273 29.3306 15.6028 29.3306ZM2.11883 14.9153L14.154 26.9712C14.5369 27.3541 15.0543 27.5714 15.6028 27.5714C16.1513 27.5714 16.6687 27.3541 17.0516 26.9712L20.9426 23.0802L13.4089 15.5362C13.0674 15.1947 13.0674 14.6359 13.4089 14.2944L20.9426 6.75043L17.0619 2.85943C16.679 2.4662 16.1616 2.25923 15.6131 2.25923C15.0647 2.25923 14.5473 2.47654 14.1644 2.85943L2.11883 14.9153Z" fill="#226DB4"/>
<path d="M25.2884 20.8565C25.0504 20.8565 24.833 20.7634 24.6675 20.5978L19.6175 15.5374C19.276 15.1959 19.276 14.6371 19.6175 14.2956L24.6675 9.23527C24.833 9.0697 25.0607 8.97656 25.2884 8.97656C25.5264 8.97656 25.7437 9.0697 25.9093 9.23527L28.8896 12.226C30.3694 13.7058 30.3694 16.1273 28.8896 17.6071L25.9093 20.5978C25.7437 20.7634 25.5264 20.8565 25.2884 20.8565ZM21.4802 14.9165L25.2884 18.7248L27.6478 16.3653C28.4446 15.5685 28.4446 14.2646 27.6478 13.4678L25.2884 11.1083L21.4802 14.9165Z" fill="#E42527"/>
</svg>
