<svg width="30" height="30" viewBox="0 0 30 30" fill="none" xmlns="http://www.w3.org/2000/svg">
<path d="M6.60417 2H23.3958C25.9417 2 28 4.02991 28 6.5406V22.4594C28 24.9701 25.9417 27 23.3958 27H6.60417C4.05833 27 2 24.9701 2 22.4594V6.5406C2 4.02991 4.05833 2 6.60417 2Z" fill="#330000"/>
<path d="M14.5058 17.3145H10.3203L9.46516 19.7991C9.44265 19.8943 9.35264 19.9577 9.25138 19.9471H7.13609C7.01233 19.9471 6.97857 19.8837 7.01233 19.7568L10.6353 9.95595C10.6691 9.85022 10.7028 9.73392 10.7478 9.60705C10.7928 9.38502 10.8153 9.15242 10.8153 8.91982C10.8041 8.86696 10.8491 8.8141 10.9054 8.80352H13.8195C13.9095 8.80352 13.9545 8.83524 13.9658 8.88811L18.0726 19.778C18.1063 19.8943 18.0726 19.9471 17.9601 19.9471H15.6085C15.5297 19.9577 15.451 19.9048 15.4285 19.8308L14.5058 17.3145ZM10.9729 15.1683H13.8307C13.7632 14.9463 13.6732 14.6819 13.572 14.407C13.4707 14.1216 13.3694 13.815 13.2682 13.4978C13.1557 13.17 13.0544 12.8529 12.9419 12.5251C12.8294 12.1974 12.7281 11.8907 12.6381 11.5841C12.5481 11.2881 12.4693 11.0132 12.3906 10.7595H12.368C12.2668 11.2141 12.143 11.6687 11.9855 12.1233C11.8167 12.6308 11.648 13.1595 11.4679 13.6881C11.3104 14.2273 11.1416 14.7242 10.9729 15.1683ZM20.5817 10.6537C20.2104 10.6643 19.8503 10.5269 19.5803 10.2837C19.3215 10.0194 19.1865 9.67048 19.1977 9.31101C19.1865 8.95154 19.3327 8.61322 19.6028 8.37004C19.8728 8.12687 20.2329 8 20.6042 8C21.043 8 21.3805 8.12687 21.628 8.37004C21.8756 8.62379 22.0106 8.96211 21.9993 9.31101C22.0106 9.67048 21.8756 10.0194 21.6055 10.2837C21.3468 10.5374 20.9642 10.6749 20.5817 10.6537ZM19.3215 19.8308V11.6899C19.3215 11.5841 19.3665 11.5419 19.4678 11.5419H21.6956C21.7968 11.5419 21.8418 11.5947 21.8418 11.6899V19.8308C21.8418 19.9471 21.7968 20 21.6956 20H19.4903C19.3777 20 19.3215 19.9366 19.3215 19.8308Z" fill="#FF9A00"/>
</svg>
