<svg width="30" height="30" viewBox="0 0 30 30" fill="none" xmlns="http://www.w3.org/2000/svg">
<path d="M1.875 11.375C1.875 8.04968 1.875 6.38703 2.52215 5.11693C3.0914 3.99972 3.99972 3.0914 5.11693 2.52215C6.38703 1.875 8.04968 1.875 11.375 1.875H18.625C21.9503 1.875 23.613 1.875 24.883 2.52215C26.0003 3.0914 26.9086 3.99972 27.4778 5.11693C28.125 6.38703 28.125 8.04968 28.125 11.375V18.625C28.125 21.9503 28.125 23.613 27.4778 24.883C26.9086 26.0003 26.0003 26.9086 24.883 27.4778C23.613 28.125 21.9503 28.125 18.625 28.125H11.375C8.04968 28.125 6.38703 28.125 5.11693 27.4778C3.99972 26.9086 3.0914 26.0003 2.52215 24.883C1.875 23.613 1.875 21.9503 1.875 18.625V11.375Z" fill="#00005B"/>
<path d="M12.9275 18.341H8.85975L8.03211 20.983C8.00914 21.081 7.91892 21.1504 7.82079 21.1456H5.7605C5.64302 21.1456 5.60193 21.0794 5.63724 20.9469L9.15908 10.5868C9.19433 10.4785 9.22953 10.3726 9.26478 10.234C9.31084 9.99298 9.33442 9.7481 9.33521 9.50257C9.32512 9.43001 9.38775 9.36573 9.45844 9.3761H12.2584C12.3404 9.3761 12.3873 9.4062 12.3992 9.46638L16.3966 20.9649C16.4317 21.0855 16.3965 21.1457 16.2909 21.1456H14.0017C13.9214 21.1547 13.8447 21.0996 13.8256 21.0191L12.9275 18.341ZM9.49369 16.1134H12.276C11.8189 14.5514 11.303 13.0099 10.8848 11.4357C10.411 13.0686 9.9735 14.5831 9.49369 16.1134Z" fill="#9999FF"/>
<path d="M19.3696 17.3199C19.5315 18.6614 20.658 19.301 21.9053 19.2737C22.6087 19.2599 23.3604 19.1507 24.0177 18.8847C24.0762 18.8368 24.1057 18.8667 24.1057 18.9751V20.6908C24.1113 20.7801 24.0739 20.8598 24.0001 20.9076C23.1831 21.2786 22.2454 21.3906 21.3594 21.3763C18.7177 21.3763 16.9036 19.515 16.9043 16.8069C16.8974 14.2406 18.5623 12.0756 21.1481 12.0756C23.3401 12.0187 24.8576 13.7737 24.8637 15.9581C24.8637 16.3559 24.8415 16.7552 24.7933 17.1501C24.7839 17.2314 24.7146 17.2946 24.6348 17.2946C22.8842 17.2946 21.125 17.3199 19.3696 17.3199ZM19.3696 15.6746C20.3452 15.6746 21.3265 15.7091 22.3015 15.6656C22.448 15.6506 22.5569 15.6228 22.5569 15.4704C22.5365 14.6606 21.8531 13.9945 21.0601 14.0256C20.1019 13.9661 19.4887 14.775 19.3696 15.6746Z" fill="#9999FF"/>
</svg>
