<svg width="30" height="30" viewBox="0 0 30 30" fill="none" xmlns="http://www.w3.org/2000/svg">
<path d="M6.63581 2H23.3612C25.897 2 27.9472 4.05021 27.9472 6.586V22.664C27.9472 25.1998 25.897 27.25 23.3612 27.25H6.63581C4.10002 27.25 2.0498 25.1998 2.0498 22.664V6.586C2.0498 4.05021 4.10002 2 6.63581 2Z" fill="#001E36"/>
<path d="M7.87793 19.7049V8.60141C7.87793 8.52587 7.9103 8.48271 7.98584 8.48271C8.16928 8.48271 8.34193 8.48271 8.59011 8.47192C8.84908 8.46113 9.11885 8.46113 9.41019 8.45034C9.70154 8.43955 10.0145 8.43955 10.349 8.42876C10.6835 8.41797 11.0072 8.41797 11.3309 8.41797C12.2158 8.41797 12.9495 8.52587 13.5538 8.75248C14.0933 8.93592 14.5897 9.23805 14.9997 9.63731C15.345 9.98261 15.6148 10.4034 15.7874 10.8674C15.9493 11.3206 16.0356 11.7846 16.0356 12.2702C16.0356 13.1982 15.8198 13.9643 15.3882 14.5686C14.9566 15.1729 14.3523 15.6261 13.6509 15.8851C12.9171 16.1548 12.1078 16.2519 11.223 16.2519C10.964 16.2519 10.7914 16.2519 10.6835 16.2412C10.5756 16.2304 10.4245 16.2304 10.2195 16.2304V19.6941C10.2303 19.7697 10.1763 19.8344 10.1008 19.8452C10.09 19.8452 10.0792 19.8452 10.0576 19.8452H8.00742C7.92109 19.8452 7.87793 19.8021 7.87793 19.7049ZM10.2303 10.5653V14.1909C10.3813 14.2017 10.5216 14.2125 10.6511 14.2125H11.223C11.6438 14.2125 12.0647 14.1478 12.4639 14.0183C12.8092 13.9212 13.1114 13.7162 13.3488 13.4464C13.5754 13.1766 13.6833 12.8097 13.6833 12.335C13.6941 12.0004 13.6077 11.6659 13.4351 11.3746C13.2516 11.094 12.9927 10.8782 12.6797 10.7595C12.2805 10.5977 11.8489 10.5329 11.4065 10.5437C11.1259 10.5437 10.8777 10.5437 10.6727 10.5545C10.4569 10.5437 10.3058 10.5545 10.2303 10.5653Z" fill="#31A8FF"/>
<path d="M22.7696 13.5324C22.4458 13.3598 22.1005 13.2411 21.7337 13.1655C21.3344 13.0792 20.9352 13.0253 20.5251 13.0253C20.3093 13.0145 20.0827 13.0468 19.8777 13.1008C19.7374 13.1332 19.6187 13.2087 19.5432 13.3166C19.4892 13.4029 19.4569 13.5108 19.4569 13.608C19.4569 13.7051 19.5 13.8022 19.5648 13.8885C19.6619 14.0072 19.7914 14.1043 19.9316 14.1799C20.1798 14.3093 20.4388 14.428 20.6978 14.536C21.2805 14.7302 21.8416 14.9999 22.3595 15.3237C22.7156 15.5503 23.007 15.8524 23.212 16.2193C23.3846 16.5646 23.471 16.9423 23.4602 17.3307C23.471 17.8379 23.3199 18.345 23.0393 18.7659C22.7372 19.1975 22.3164 19.532 21.8308 19.7262C21.302 19.9528 20.6546 20.0715 19.8777 20.0715C19.3813 20.0715 18.8957 20.0284 18.4102 19.9312C18.0325 19.8665 17.6548 19.7478 17.3095 19.586C17.234 19.5428 17.18 19.4673 17.1908 19.3809V17.5034C17.1908 17.471 17.2016 17.4278 17.234 17.4063C17.2664 17.3847 17.2987 17.3955 17.3311 17.417C17.7519 17.6652 18.1944 17.8379 18.6691 17.9458C19.0792 18.0537 19.5108 18.1076 19.9424 18.1076C20.3525 18.1076 20.6438 18.0537 20.8381 17.9566C21.0107 17.881 21.1294 17.6976 21.1294 17.5034C21.1294 17.3523 21.0431 17.212 20.8704 17.0717C20.6978 16.9315 20.3417 16.7696 19.8129 16.5646C19.2626 16.3704 18.7555 16.1114 18.2807 15.7877C17.9462 15.5503 17.6656 15.2373 17.4606 14.8705C17.2879 14.5252 17.2016 14.1475 17.2124 13.7698C17.2124 13.3058 17.3419 12.8634 17.5793 12.4642C17.8491 12.0325 18.2483 11.6872 18.7123 11.4714C19.2195 11.2124 19.8561 11.0938 20.6222 11.0938C21.0647 11.0938 21.5179 11.1261 21.9603 11.1909C22.284 11.234 22.5969 11.3204 22.8883 11.439C22.9314 11.4498 22.9746 11.493 22.9962 11.5362C23.007 11.5793 23.0178 11.6225 23.0178 11.6657V13.4245C23.0178 13.4677 22.9962 13.5108 22.9638 13.5324C22.8667 13.554 22.8127 13.554 22.7696 13.5324Z" fill="#31A8FF"/>
</svg>
