<svg width="30" height="30" viewBox="0 0 30 30" fill="none" xmlns="http://www.w3.org/2000/svg">
<path d="M11.7688 16.3106C11.8779 14.3647 12.8308 12.6503 14.2684 11.435C15.6782 10.2413 17.5757 9.51172 19.6462 9.51172C21.7145 9.51172 23.6121 10.2413 25.0229 11.435C26.4595 12.6503 27.4124 14.3647 27.5225 16.3086C27.6315 18.308 26.8279 20.1654 25.4181 21.5423C23.9805 22.9428 21.9358 23.8216 19.6462 23.8216C17.3565 23.8216 15.3077 22.9428 13.8712 21.5423C12.4603 20.1654 11.6587 18.308 11.7688 16.3106Z" fill="white"/>
<path d="M15.6057 16.4847C15.6617 15.4862 16.1506 14.6065 16.8883 13.9829C17.6117 13.3705 18.5853 12.9961 19.6477 12.9961C20.709 12.9961 21.6826 13.3705 22.4065 13.9829C23.1436 14.6065 23.6326 15.4862 23.6891 16.4836C23.745 17.5095 23.3327 18.4626 22.6093 19.1691C21.8716 19.8877 20.8225 20.3386 19.6477 20.3386C18.4728 20.3386 17.4216 19.8877 16.6845 19.1691C15.9606 18.4626 15.5492 17.5095 15.6057 16.4847Z" fill="#265787"/>
<path d="M9.18876 18.5366C9.19564 18.9282 9.32052 19.6891 9.50784 20.2833C9.90152 21.5411 10.5693 22.7047 11.4985 23.7302C12.452 24.7842 13.6261 25.6308 14.9823 26.2319C16.4078 26.8632 17.9524 27.1849 19.5568 27.1823C21.1585 27.1802 22.7031 26.8521 24.1286 26.2161C25.4848 25.6091 26.6579 24.7588 27.6098 23.7042C28.5384 22.6745 29.2052 21.5088 29.5999 20.251C29.7983 19.6155 29.9237 18.9705 29.974 18.3234C30.0232 17.6858 30.0026 17.0471 29.9121 16.4089C29.7354 15.1655 29.3052 13.9987 28.6427 12.9351C28.0368 11.9578 27.2558 11.1022 26.3271 10.382L26.3293 10.3804L16.9576 3.18462C16.9492 3.17827 16.9423 3.17139 16.9333 3.16557C16.3184 2.69358 15.2845 2.69516 14.6082 3.16822C13.9246 3.64656 13.8463 4.43763 14.4548 4.93661L14.4521 4.93926L18.3609 8.11781L6.44728 8.13051H6.4314C5.44667 8.13157 4.50003 8.77765 4.31272 9.59412C4.12011 10.4259 4.78895 11.1159 5.81284 11.1196L5.81125 11.1233L11.8498 11.1117L1.07437 19.3827C1.06061 19.3928 1.04579 19.4034 1.03309 19.4134C0.016612 20.1918 -0.311985 21.4861 0.328277 22.3052C0.978063 23.138 2.35965 23.1396 3.38672 22.3099L9.26761 17.4969C9.26761 17.4969 9.18188 18.1466 9.18876 18.5366ZM24.3005 20.7125C23.0888 21.9469 21.3924 22.647 19.5568 22.6507C17.7185 22.6539 16.0221 21.9602 14.8104 20.7278C14.2183 20.1272 13.7833 19.4362 13.515 18.7001C13.252 17.9768 13.1499 17.209 13.2177 16.4343C13.2817 15.6771 13.5071 14.9549 13.8669 14.3014C14.2204 13.659 14.7072 13.0785 15.3083 12.5875C16.4862 11.6276 17.9858 11.108 19.5541 11.1059C21.1241 11.1038 22.6226 11.6186 23.8016 12.5753C24.4016 13.0642 24.8879 13.6426 25.2413 14.2839C25.6028 14.9369 25.8266 15.6565 25.8933 16.4158C25.9599 17.1894 25.8578 17.9562 25.5948 18.68C25.326 19.4182 24.8926 20.1092 24.3005 20.7125Z" fill="#EA7600"/>
</svg>
