<svg width="30" height="30" viewBox="0 0 30 30" fill="none" xmlns="http://www.w3.org/2000/svg">
<path d="M5.59227 17.5512C5.59227 18.471 5.79334 19.1771 6.05632 19.6044C6.40104 20.164 6.91515 20.4015 7.43932 20.4015C8.11528 20.4015 8.73375 20.2331 9.92553 18.5786C10.8806 17.2525 12.0054 15.3912 12.7624 14.2243L14.0444 12.2473C14.9349 10.8743 15.9656 9.34809 17.1474 8.31354C18.1125 7.46909 19.153 7 20.2004 7C21.959 7 23.634 8.02284 24.916 9.94119C26.319 12.0421 27 14.6884 27 17.4192C27 19.0427 26.6812 20.2356 26.1387 21.178C25.6146 22.0894 24.593 23 22.8745 23V20.4011C24.346 20.4011 24.7131 19.0439 24.7131 17.4909C24.7131 15.2777 24.199 12.8216 23.0665 11.0666C22.2628 9.82182 21.2212 9.06122 20.0753 9.06122C18.8358 9.06122 17.8385 9.99961 16.7176 11.6723C16.1216 12.5611 15.5099 13.6442 14.823 14.8664L14.0668 16.2109C12.548 18.9146 12.1631 19.5301 11.4036 20.546C10.0725 22.3251 8.93571 22.9996 7.43932 22.9996C5.66405 22.9996 4.54153 22.228 3.84626 21.0653C3.27877 20.1179 3 18.8747 3 17.4583L5.59227 17.5512Z" fill="#0081FB"/>
<path d="M5 10.1246C6.19085 8.28588 7.90943 7 9.88055 7C11.022 7 12.1571 7.33842 13.3419 8.30768C14.6381 9.36714 16.0196 11.1127 17.7433 13.9884L18.3613 15.0201C19.8532 17.5098 20.702 18.7906 21.1988 19.3946C21.8376 20.1702 22.2851 20.4015 22.8663 20.4015C24.3407 20.4015 24.7086 19.0444 24.7086 17.4913L27 17.4193C27 19.0428 26.6806 20.2356 26.1369 21.178C25.6118 22.0894 24.5882 23 22.8663 23C21.7958 23 20.8475 22.7671 19.7988 21.7761C18.9929 21.0155 18.0501 19.6643 17.325 18.4497L15.1683 14.8409C14.0862 13.0299 13.0932 11.6795 12.519 11.0679C11.9009 10.4103 11.1065 9.61617 9.83865 9.61617C8.81259 9.61617 7.94116 10.3374 7.21197 11.4407L5 10.1246Z" fill="url(#paint0_linear_3_320)"/>
<path d="M9.95766 9.60396C8.92104 9.60396 8.04064 10.3218 7.30393 11.4199C6.26211 12.9716 5.62473 15.2828 5.62473 17.5023C5.62473 18.4178 5.82827 19.1206 6.0945 19.5459L3.85669 21C3.28221 20.0571 3 18.8197 3 17.4098C3 14.8459 3.7131 12.1737 5.06917 10.11C6.27229 8.27989 8.00858 7 10 7L9.95766 9.60396Z" fill="url(#paint1_linear_3_320)"/>
<defs>
<linearGradient id="paint0_linear_3_320" x1="8.16499" y1="14.5853" x2="24.7234" y2="15.4202" gradientUnits="userSpaceOnUse">
<stop stop-color="#0064E1"/>
<stop offset="0.4" stop-color="#0064E1"/>
<stop offset="0.83" stop-color="#0073EE"/>
<stop offset="1" stop-color="#0082FB"/>
</linearGradient>
<linearGradient id="paint1_linear_3_320" x1="6.49995" y1="18.5896" x2="6.49995" y2="12.503" gradientUnits="userSpaceOnUse">
<stop stop-color="#0082FB"/>
<stop offset="1" stop-color="#0064E0"/>
</linearGradient>
</defs>
</svg>
