<svg width="30" height="30" viewBox="0 0 30 30" fill="none" xmlns="http://www.w3.org/2000/svg">
<g clip-path="url(#clip0_3_318)">
<path d="M28.2053 14.9855C28.2053 17.1983 28.1821 19.411 28.2286 21.6237C28.2519 22.3225 28.0656 22.7184 27.4367 23.0911C23.547 25.2806 19.6572 27.5166 15.814 29.7759C15.3249 30.0554 14.9755 30.102 14.4631 29.7992C10.5268 27.47 6.59044 25.1874 2.63081 22.9281C2.16497 22.6719 1.97864 22.4157 2.00193 21.8566C2.02522 17.3147 2.02522 12.7961 2.00193 8.25416C2.00193 7.62528 2.18826 7.29919 2.72398 6.97311C6.66031 4.76037 10.5501 2.47777 14.4631 0.218449C14.9522 -0.061054 15.3016 -0.084346 15.814 0.218449C19.7038 2.50106 23.6168 4.76037 27.5299 6.97311C28.0889 7.2759 28.2519 7.62528 28.2519 8.23087C28.1821 10.4902 28.2053 12.7262 28.2053 14.9855ZM18.5625 24.0228C17.4911 24.0228 16.3498 24.0228 15.1852 24.0228C12.7861 24.0228 12.8327 24.0228 12.7861 21.6237C12.7628 20.8318 12.9491 20.5756 13.7876 20.5756C17.1184 20.6222 20.4491 20.5523 23.8032 20.5989C24.6184 20.5989 24.9678 20.4824 24.8979 19.5507C24.8047 18.1299 24.8047 16.6858 24.8979 15.2417C24.9445 14.4265 24.7581 14.1936 23.9196 14.1936C21.0547 14.2402 18.1665 14.2169 15.3016 14.2169C12.7861 14.2169 12.8327 14.2169 12.7861 11.7014C12.7628 10.8629 13.0656 10.7464 13.7876 10.7464C17.1184 10.7697 20.4724 10.7697 23.8032 10.7697C24.1758 10.7697 24.7581 11.0492 24.8746 10.4669C24.9911 9.8846 24.9678 9.32559 24.2457 8.92963C21.3808 7.34578 18.5625 5.66876 15.6976 4.01503C15.4181 3.85199 15.1852 3.61907 14.7659 3.89857C13.7644 4.55075 12.6929 5.10975 11.342 5.87839C12.8094 5.87839 13.9274 5.87839 15.0454 5.87839C17.5144 5.87839 17.4678 5.87839 17.4911 8.37062C17.4911 9.16255 17.2348 9.32559 16.5128 9.3023C13.0889 9.25572 9.68826 9.3023 6.26435 9.25572C5.56559 9.25572 5.33267 9.39547 5.35597 10.1408C5.42584 11.7247 5.40255 13.3318 5.35597 14.9157C5.33267 15.5445 5.51901 15.661 6.1246 15.661C9.10597 15.6144 12.1106 15.6377 15.092 15.6377C17.4911 15.6377 17.4445 15.6377 17.5144 18.0368C17.5376 18.9684 17.2116 19.0849 16.3963 19.0849C13.0889 19.0383 9.80472 19.0383 6.49727 19.0849C6.14789 19.0849 5.47243 18.6424 5.40255 19.4576C5.33267 20.0632 5.33267 20.5989 6.07802 20.9948C7.96466 21.9731 9.8746 22.9514 11.5749 24.1858C14.0206 26.0026 16.3032 26.7014 18.5625 24.0228Z" fill="#1E1E1E"/>
</g>
<defs>
<clipPath id="clip0_3_318">
<rect width="30" height="30" fill="white"/>
</clipPath>
</defs>
</svg>
