<svg width="30" height="30" viewBox="0 0 30 30" fill="none" xmlns="http://www.w3.org/2000/svg">
<path d="M26.3438 19.5672L26.3304 19.5605C26.2902 19.6208 26.2433 19.6811 26.2031 19.7413C26.25 19.6811 26.3036 19.6275 26.3438 19.5672Z" fill="black"/>
<path d="M28.68 12.9222C28.5699 8.52711 24.9817 5 20.5682 5C18.3982 5 16.4359 5.8558 14.975 7.24341C13.5262 5.8558 11.5701 5 9.41839 5C5.00491 5 1.41667 8.5699 1.30664 13.0201V13.0506V13.0812C1.30664 16.4677 2.53532 19.4752 3.66009 21.5414C4.22858 22.5928 4.80319 23.4486 5.2372 24.0476C5.45115 24.3472 5.64065 24.5856 5.77513 24.7567C5.84237 24.8423 5.89739 24.9095 5.94018 24.9584C5.95852 24.9829 5.97685 25.0012 5.98908 25.0196C5.99519 25.0257 6.00131 25.0318 6.00742 25.0379L6.01353 25.044L6.01964 25.0501C6.96102 26.1443 8.59926 26.2544 9.68124 25.3008C10.7571 24.3472 10.8671 22.6906 9.93186 21.5964C9.93186 21.5964 9.93186 21.5964 9.93186 21.5903C9.93186 21.5841 9.92575 21.578 9.91353 21.5719C9.89519 21.5475 9.86462 21.5108 9.81572 21.4558C9.73014 21.3457 9.59566 21.1746 9.43061 20.9423C9.10052 20.4838 8.65428 19.8175 8.21415 18.9984C7.30945 17.3357 6.51478 15.239 6.50256 13.1117C6.55757 11.5224 7.84738 10.2509 9.4245 10.2509C11.0138 10.2509 12.3098 11.5346 12.3464 13.1423C12.3587 13.5519 12.4626 13.937 12.6337 14.2793C13.0005 15.2635 13.948 15.9664 15.0605 15.9664C16.4909 15.9664 17.6524 14.805 17.6524 13.3685V13.0201C17.7074 11.4491 18.9972 10.1959 20.5743 10.1959C22.1514 10.1959 23.4413 11.4552 23.4963 13.0201C23.4902 14.7316 22.94 16.4127 22.3226 17.7453C22.017 18.3994 21.7174 18.9312 21.4974 19.2979C21.3873 19.4813 21.2956 19.6158 21.2406 19.7014C21.2101 19.7442 21.1917 19.7747 21.1795 19.787C21.1734 19.7931 21.1734 19.7992 21.1673 19.7992C21.1612 19.8114 21.1428 19.8359 21.1428 19.8359C21.6196 19.2368 22.3471 18.8578 23.1723 18.8578C24.6027 18.8578 25.7641 20.0193 25.7641 21.4497C25.7641 21.9693 25.6113 22.4461 25.3485 22.8556C25.3607 22.8617 25.3607 22.8617 25.3607 22.8617V22.8556L25.3668 22.8495C25.3729 22.8434 25.3729 22.8373 25.379 22.8312C25.3912 22.8189 25.4035 22.8006 25.4157 22.7762C25.4463 22.7334 25.4829 22.6783 25.5318 22.605C25.6296 22.4644 25.758 22.2627 25.9108 22.012C26.2165 21.5108 26.6199 20.8017 27.0234 19.9276C27.818 18.216 28.6738 15.7464 28.6738 12.9834V12.9528L28.68 12.9222Z" fill="black"/>
<path d="M23.1659 18.8574C22.3468 18.8574 21.6133 19.2425 21.1365 19.8355C20.7819 20.2756 20.5741 20.838 20.5741 21.4493C20.5741 22.8797 21.7355 24.0411 23.1659 24.0411C24.0095 24.0411 24.7492 23.6377 25.226 23.0203C25.2688 22.9653 25.3054 22.9102 25.3421 22.8552C25.605 22.4518 25.7578 21.9689 25.7578 21.4493C25.7578 20.0189 24.6025 18.8574 23.1659 18.8574Z" fill="#B7E803"/>
</svg>
