<svg width="30" height="30" viewBox="0 0 30 30" fill="none" xmlns="http://www.w3.org/2000/svg">
<path d="M27.8301 21.4337V9.55375C27.8301 8.62375 27.3351 7.75375 26.5251 7.28875L16.2351 1.34875C15.4251 0.88375 14.4201 0.88375 13.6101 1.34875L3.30506 7.28875C2.49506 7.75375 2.00006 8.62375 2.00006 9.55375V21.4337C2.00006 22.3637 2.49506 23.2337 3.30506 23.6987L13.5951 29.6387C14.4051 30.1037 15.4101 30.1037 16.2201 29.6387L26.5101 23.6987C27.3351 23.2337 27.8301 22.3637 27.8301 21.4337Z" fill="#42239B"/>
<path d="M11.78 12.704C12.2274 12.704 12.59 12.3413 12.59 11.894C12.59 11.4466 12.2274 11.084 11.78 11.084C11.3327 11.084 10.97 11.4466 10.97 11.894C10.97 12.3413 11.3327 12.704 11.78 12.704Z" fill="#FFFCFF"/>
<path d="M23.825 21.7941C24.115 21.7941 24.35 21.5591 24.35 21.2691C24.35 20.9792 24.115 20.7441 23.825 20.7441C23.5351 20.7441 23.3 20.9792 23.3 21.2691C23.3 21.5591 23.5351 21.7941 23.825 21.7941Z" fill="#6C52DD"/>
<path d="M14.9001 25.4084C15.19 25.4084 15.4251 25.1733 15.4251 24.8834C15.4251 24.5934 15.19 24.3584 14.9001 24.3584C14.6101 24.3584 14.3751 24.5934 14.3751 24.8834C14.3751 25.1733 14.6101 25.4084 14.9001 25.4084Z" fill="#6C52DD"/>
<path d="M18.1401 7.15352C18.43 7.15352 18.6651 6.91847 18.6651 6.62852C18.6651 6.33857 18.43 6.10352 18.1401 6.10352C17.8501 6.10352 17.6151 6.33857 17.6151 6.62852C17.6151 6.91847 17.8501 7.15352 18.1401 7.15352Z" fill="#6C52DD"/>
<path d="M11.5401 7.15352C11.83 7.15352 12.0651 6.91847 12.0651 6.62852C12.0651 6.33857 11.83 6.10352 11.5401 6.10352C11.2501 6.10352 11.0151 6.33857 11.0151 6.62852C11.0151 6.91847 11.2501 7.15352 11.5401 7.15352Z" fill="#6C52DD"/>
<path d="M23.8251 17.6386C24.2724 17.6386 24.6351 17.2759 24.6351 16.8286C24.6351 16.3812 24.2724 16.0186 23.8251 16.0186C23.3777 16.0186 23.0151 16.3812 23.0151 16.8286C23.0151 17.2759 23.3777 17.6386 23.8251 17.6386Z" fill="#6C52DD"/>
<path d="M19.1751 23.0839C19.6224 23.0839 19.9851 22.7212 19.9851 22.2739C19.9851 21.8265 19.6224 21.4639 19.1751 21.4639C18.7277 21.4639 18.3651 21.8265 18.3651 22.2739C18.3651 22.7212 18.7277 23.0839 19.1751 23.0839Z" fill="#FFFCFF"/>
<path d="M9.62006 23.3534C10.0674 23.3534 10.4301 22.9907 10.4301 22.5434C10.4301 22.096 10.0674 21.7334 9.62006 21.7334C9.17271 21.7334 8.81006 22.096 8.81006 22.5434C8.81006 22.9907 9.17271 23.3534 9.62006 23.3534Z" fill="#FFFCFF"/>
<path d="M9.62007 15.7036C10.1668 15.7036 10.6101 15.2604 10.6101 14.7136C10.6101 14.1669 10.1668 13.7236 9.62007 13.7236C9.0733 13.7236 8.63007 14.1669 8.63007 14.7136C8.63007 15.2604 9.0733 15.7036 9.62007 15.7036Z" fill="#FFFCFF"/>
<path d="M14.9 20.8638C15.4468 20.8638 15.89 20.4206 15.89 19.8738C15.89 19.327 15.4468 18.8838 14.9 18.8838C14.3533 18.8838 13.91 19.327 13.91 19.8738C13.91 20.4206 14.3533 20.8638 14.9 20.8638Z" fill="#6C52DD"/>
<path d="M14.9 10.9487C15.4468 10.9487 15.89 10.5055 15.89 9.95875C15.89 9.41199 15.4468 8.96875 14.9 8.96875C14.3533 8.96875 13.91 9.41199 13.91 9.95875C13.91 10.5055 14.3533 10.9487 14.9 10.9487Z" fill="#6C52DD"/>
<path d="M19.16 18.0884C19.7068 18.0884 20.15 17.6452 20.15 17.0984C20.15 16.5516 19.7068 16.1084 19.16 16.1084C18.6133 16.1084 18.17 16.5516 18.17 17.0984C18.17 17.6452 18.6133 18.0884 19.16 18.0884Z" fill="#FFFCFF"/>
<path d="M7.40003 9.68898C7.9468 9.68898 8.39003 9.24575 8.39003 8.69898C8.39003 8.15222 7.9468 7.70898 7.40003 7.70898C6.85327 7.70898 6.41003 8.15222 6.41003 8.69898C6.41003 9.24575 6.85327 9.68898 7.40003 9.68898Z" fill="#FFFCFF"/>
<path d="M19.325 10.7236H18.98V22.7836H19.325V10.7236Z" fill="#FFFCFF"/>
<path d="M9.78506 14.4736H9.44006V23.1436H9.78506V14.4736Z" fill="#FFFCFF"/>
<path d="M7.53506 8.60883L7.46006 8.54883L7.25006 8.83383L19.1151 17.2638L19.1901 17.3238L19.4001 17.0388L7.53506 8.60883Z" fill="#FFFCFF"/>
<path d="M11.8551 11.5635L8.88507 15.0585L9.15507 15.2985L12.0651 11.8635L12.1251 11.8035L11.8551 11.5635Z" fill="#FFFCFF"/>
<path d="M19.1751 12.2391C19.6224 12.2391 19.9851 11.8765 19.9851 11.4291C19.9851 10.9818 19.6224 10.6191 19.1751 10.6191C18.7277 10.6191 18.3651 10.9818 18.3651 11.4291C18.3651 11.8765 18.7277 12.2391 19.1751 12.2391Z" fill="#FFFCFF"/>
<path d="M21.2751 10.2138C21.7224 10.2138 22.0851 9.8511 22.0851 9.40375C22.0851 8.9564 21.7224 8.59375 21.2751 8.59375C20.8277 8.59375 20.4651 8.9564 20.4651 9.40375C20.4651 9.8511 20.8277 10.2138 21.2751 10.2138Z" fill="#FFFCFF"/>
<path d="M23.7051 13.3189C24.2519 13.3189 24.6951 12.8756 24.6951 12.3289C24.6951 11.7821 24.2519 11.3389 23.7051 11.3389C23.1583 11.3389 22.7151 11.7821 22.7151 12.3289C22.7151 12.8756 23.1583 13.3189 23.7051 13.3189Z" fill="#FFFCFF"/>
<path d="M20.7742 9.60494L19.0024 11.376L19.2464 11.62L21.0181 9.84896L20.7742 9.60494Z" fill="#FFFCFF"/>
<path d="M19.0551 11.1436L18.9951 11.5036L23.5851 12.2086L23.6301 11.8636L19.0551 11.1436Z" fill="#FFFCFF"/>
<path d="M21.14 9.04395L20.855 9.25395L23.15 12.2089L23.435 11.9989L21.14 9.04395Z" fill="#FFFCFF"/>
<path d="M5.85508 13.6184C6.14503 13.6184 6.38008 13.3833 6.38008 13.0934C6.38008 12.8034 6.14503 12.5684 5.85508 12.5684C5.56513 12.5684 5.33008 12.8034 5.33008 13.0934C5.33008 13.3833 5.56513 13.6184 5.85508 13.6184Z" fill="#6C52DD"/>
<path d="M5.85504 18.3436C6.30239 18.3436 6.66504 17.981 6.66504 17.5336C6.66504 17.0863 6.30239 16.7236 5.85504 16.7236C5.40769 16.7236 5.04504 17.0863 5.04504 17.5336C5.04504 17.981 5.40769 18.3436 5.85504 18.3436Z" fill="#6C52DD"/>
</svg>
