<svg width="30" height="30" viewBox="0 0 30 30" fill="none" xmlns="http://www.w3.org/2000/svg">
<path d="M30 27.45C30 28.8525 28.8525 30 27.45 30H2.55C1.1475 30 0 28.8525 0 27.45V2.55C0 1.1475 1.1475 0 2.55 0H27.45C28.8525 0 30 1.1475 30 2.55V27.45Z" fill="#222222"/>
<path d="M30 27.45C30 28.8525 28.8525 30 27.45 30H2.55C1.1475 30 0 28.8525 0 27.45V2.55C0 1.1475 1.1475 0 2.55 0H27.45C28.8525 0 30 1.1475 30 2.55V27.45Z" fill="#222222"/>
<path d="M9.108 4.29704C9.18 6.48704 10.6965 7.70354 13.7205 8.17604C16.2825 8.57804 18.594 8.37404 19.3485 6.17804C20.8185 1.89704 17.3295 2.96204 14.307 2.48654C11.283 2.01104 8.9925 0.778039 9.108 4.29704Z" fill="#FF4000"/>
<path d="M10.017 13.2913C10.2975 14.9263 11.8215 15.8638 14.154 15.8008C16.4865 15.7363 18.2265 14.8258 18.468 13.0618C18.915 9.79628 16.3425 11.0593 14.01 11.1223C11.676 11.1868 9.46352 10.0828 10.017 13.2913Z" fill="#FF4000"/>
<path d="M13.0515 20.778C13.515 21.999 14.7855 22.515 16.503 22.1475C18.219 21.7815 19.4055 21.213 19.3095 19.821C19.1355 17.2455 17.439 18.0555 15.723 18.423C14.0055 18.7875 12.147 18.381 13.0515 20.778Z" fill="#FF4000"/>
<path d="M14.5245 26.4836C14.6595 27.5141 15.5505 28.1216 16.9455 28.1111C18.3435 28.0991 19.401 27.5486 19.581 26.4446C19.917 24.4001 18.354 25.1606 16.9575 25.1726C15.5595 25.1831 14.259 24.4616 14.5245 26.4836Z" fill="#FF4000"/>
</svg>
