<svg width="30" height="30" viewBox="0 0 30 30" fill="none" xmlns="http://www.w3.org/2000/svg">
<path d="M28 25.79C28 27.0055 27.0055 28 25.79 28H4.21C2.9945 28 2 27.0055 2 25.79V4.21C2 2.9945 2.9945 2 4.21 2H25.79C27.0055 2 28 2.9945 28 4.21V25.79Z" fill="#222222"/>
<path d="M28 25.79C28 27.0055 27.0055 28 25.79 28H4.21C2.9945 28 2 27.0055 2 25.79V4.21C2 2.9945 2.9945 2 4.21 2H25.79C27.0055 2 28 2.9945 28 4.21V25.79Z" fill="#222222"/>
<path d="M9.89327 5.73432C9.95567 7.63232 11.27 8.68662 13.8908 9.09612C16.1112 9.44452 18.1145 9.26772 18.7684 7.36452C20.0424 3.65432 17.0186 4.57732 14.3991 4.16522C11.7783 3.75312 9.79317 2.68452 9.89327 5.73432Z" fill="#FF4000"/>
<path d="M10.6809 13.5315C10.924 14.9485 12.2448 15.761 14.2663 15.7064C16.2878 15.6505 17.7958 14.8614 18.0051 13.3326C18.3925 10.5025 16.163 11.5971 14.1415 11.6517C12.1187 11.7076 10.2012 10.7508 10.6809 13.5315Z" fill="#FF4000"/>
<path d="M13.3107 20.0189C13.7124 21.0771 14.8135 21.5243 16.302 21.2058C17.7892 20.8886 18.8175 20.3959 18.7343 19.1895C18.5835 16.9574 17.1132 17.6594 15.626 17.9779C14.1375 18.2938 12.5268 17.9415 13.3107 20.0189Z" fill="#FF4000"/>
<path d="M14.5877 24.9599C14.7047 25.853 15.4769 26.3795 16.6859 26.3704C17.8975 26.36 18.814 25.8829 18.97 24.9261C19.2612 23.1542 17.9066 23.8133 16.6963 23.8237C15.4847 23.8328 14.3576 23.2075 14.5877 24.9599Z" fill="#FF4000"/>
</svg>
