<svg width="30" height="30" viewBox="0 0 30 30" fill="none" xmlns="http://www.w3.org/2000/svg">
<g clip-path="url(#clip0_3_61)">
<path d="M15.5234 3.27762C15.6851 2.28125 15.0085 1.34243 14.0121 1.18071C13.0157 1.01899 12.0769 1.69562 11.9152 2.69199C11.7535 3.68837 12.4301 4.62719 13.4265 4.78891C14.4229 4.95063 15.3617 4.274 15.5234 3.27762Z" fill="#E1262F"/>
<path d="M27.1195 29.2134C28.7104 29.2134 30.0001 27.9237 30.0001 26.3328C30.0001 24.7418 28.7104 23.4521 27.1195 23.4521C25.5285 23.4521 24.2388 24.7418 24.2388 26.3328C24.2388 27.9237 25.5285 29.2134 27.1195 29.2134Z" fill="#E1262F"/>
<path d="M2.12747 27.6034C2.82967 27.6034 3.39892 27.0342 3.39892 26.332C3.39892 25.6298 2.82967 25.0605 2.12747 25.0605C1.42527 25.0605 0.856018 25.6298 0.856018 26.332C0.856018 27.0342 1.42527 27.6034 2.12747 27.6034Z" fill="#E1262F"/>
<path d="M13.7097 6.74414C7.5511 6.74414 2.56464 11.7306 2.56464 17.8892C2.56464 24.0478 7.5511 29.0342 13.7097 29.0342C19.8683 29.0342 24.8547 24.0478 24.8547 17.8892C24.8547 11.7306 19.8683 6.74414 13.7097 6.74414ZM6.16045 13.5583L13.6898 9.20757L21.1993 13.5583V17.4919L17.7426 16.3793V15.5648L13.6898 13.2206L10.7099 14.949L21.1993 18.3064V22.2399L13.67 26.5907L6.14059 22.2598V18.3064L9.61721 19.399V20.2136L13.67 22.5578L16.6896 20.8095L6.16045 17.472V13.5583Z" fill="#E1262F"/>
</g>
<defs>
<clipPath id="clip0_3_61">
<rect width="30" height="30" fill="white"/>
</clipPath>
</defs>
</svg>
