<svg width="60" height="60" viewBox="0 0 60 60" fill="none" xmlns="http://www.w3.org/2000/svg">
<g clip-path="url(#clip0_823_793)">
<path d="M30.0355 0.000277874C34.9052 0.000277874 39.4905 1.138 43.7915 3.34179L44.3602 3.62615L43.8626 4.01715C42.654 4.97686 41.6943 6.22094 41.09 7.64274L40.9123 8.03373L40.5569 7.85601C37.2512 6.29203 33.7322 5.47449 30.0711 5.47449C16.5284 5.47449 5.54502 16.4934 5.54502 30.0006C5.54502 43.5077 16.4929 54.5266 30.0355 54.5266C43.5782 54.5266 54.5616 43.5077 54.5616 30.0006C54.5616 26.766 53.9573 23.6025 52.6777 20.6167L52.5 20.2257L52.891 20.048C54.3483 19.5148 55.628 18.6261 56.6588 17.4887L57.0498 16.9911L57.2986 17.5598C59.1114 21.5053 60 25.6996 60 29.9295C60 46.4579 46.5284 59.9295 30 59.9295C13.4716 59.9295 0 46.4579 0 29.9295C0 13.401 13.4716 -0.0705321 30.0355 0.000277874ZM30.0355 16.3513C37.5355 16.3513 43.6848 22.465 43.7204 30.0361C43.7204 37.6072 37.6066 43.7209 30.0355 43.7209C22.4645 43.7209 16.3507 37.6072 16.3507 30.0361C16.3507 22.465 22.5 16.3513 30.0355 16.3513ZM49.6209 5.04795C53.0759 5.04795 55.8768 7.84882 55.8768 11.3039C55.8768 14.7589 53.0759 17.5598 49.6209 17.5598C46.1658 17.5598 43.3649 14.7589 43.3649 11.3039C43.3649 7.84882 46.1658 5.04795 49.6209 5.04795Z" fill="#3880FF"/>
</g>
<defs>
<clipPath id="clip0_823_793">
<rect width="60" height="60" fill="white"/>
</clipPath>
</defs>
</svg>
