<svg width="30" height="30" viewBox="0 0 30 30" fill="none" xmlns="http://www.w3.org/2000/svg">
<path d="M27.1972 4.71379L21.7916 2.11129C21.4863 1.9641 21.1428 1.91552 20.8087 1.9723C20.4746 2.02908 20.1664 2.18839 19.9269 2.42816L2.23161 18.5607C2.01692 18.7555 1.8884 19.0276 1.87434 19.3172C1.86027 19.6067 1.96181 19.89 2.15661 20.1047C2.18005 20.13 2.20349 20.1544 2.2288 20.1769L3.67349 21.4894C3.86227 21.6612 4.10526 21.7615 4.36027 21.7728C4.61527 21.7841 4.86619 21.7057 5.06943 21.5513L26.3835 5.38879C26.5445 5.26662 26.7364 5.19182 26.9376 5.1728C27.1388 5.15378 27.3413 5.1913 27.5223 5.28114C27.7033 5.37097 27.8557 5.50955 27.9622 5.68128C28.0688 5.85301 28.1253 6.05107 28.1254 6.25316V6.19035C28.1253 5.88182 28.0382 5.57956 27.874 5.31835C27.7098 5.05713 27.4753 4.84758 27.1972 4.71379Z" fill="#0065A9"/>
<path d="M27.1972 25.2839L21.7916 27.8873C21.4862 28.0341 21.1428 28.0825 20.8088 28.0257C20.4748 27.9689 20.1667 27.8099 19.9269 27.5705L2.23161 11.437C2.01692 11.2422 1.8884 10.9701 1.87434 10.6805C1.86027 10.391 1.96181 10.1077 2.15661 9.89296C2.18005 9.86765 2.20349 9.84327 2.2288 9.82077L3.67349 8.50828C3.86246 8.33574 4.10601 8.23503 4.36164 8.22372C4.61728 8.21242 4.86877 8.29122 5.07224 8.4464L26.3835 24.6089C26.5445 24.7311 26.7364 24.8059 26.9376 24.8249C27.1388 24.8439 27.3413 24.8064 27.5223 24.7166C27.7033 24.6267 27.8557 24.4881 27.9622 24.3164C28.0688 24.1447 28.1253 23.9466 28.1254 23.7445V23.812C28.1244 24.1197 28.0368 24.4209 27.8727 24.6812C27.7085 24.9415 27.4745 25.1504 27.1972 25.2839Z" fill="#007ACC"/>
<path d="M21.7913 27.8862C21.4859 28.033 21.1425 28.0813 20.8085 28.0246C20.4745 27.9678 20.1663 27.8087 19.9266 27.5693C20.0612 27.7022 20.2321 27.7924 20.4177 27.8286C20.6034 27.8648 20.7956 27.8454 20.9703 27.7728C21.145 27.7002 21.2944 27.5777 21.3997 27.4206C21.5051 27.2635 21.5617 27.0788 21.5625 26.8897V3.10715C21.5627 2.91711 21.5064 2.7313 21.4009 2.57325C21.2954 2.41521 21.1453 2.29204 20.9697 2.21935C20.7941 2.14667 20.6009 2.12773 20.4145 2.16495C20.2282 2.20216 20.0571 2.29385 19.9229 2.4284C20.1624 2.18872 20.4705 2.0294 20.8046 1.97246C21.1386 1.91553 21.4821 1.9638 21.7875 2.11059L27.1922 4.70934C27.4711 4.84246 27.7067 5.05173 27.8717 5.313C28.0368 5.57426 28.1246 5.87687 28.125 6.1859V23.8109C28.1251 24.1197 28.0379 24.4222 27.8736 24.6836C27.7092 24.945 27.4743 25.1547 27.196 25.2884L21.7913 27.8862Z" fill="#1F9CF0"/>
</svg>
