<svg width="40" height="40" viewBox="0 0 40 40" fill="none" xmlns="http://www.w3.org/2000/svg">
<path d="M12.2275 16.8089L20 9.03634L27.7725 16.8089L32.2907 12.2907L20 0L7.70933 12.2907L12.2275 16.8089ZM0 19.9684L4.51817 15.4503L9.03634 19.9684L4.51817 24.4866L0 19.9684ZM12.2275 23.128L20 30.9005L27.7725 23.128L32.3065 27.6461L20.0158 39.9527L7.72512 27.6461L12.2275 23.128ZM30.9637 19.9684L35.4818 15.4503L40 19.9684L35.4818 24.4866L30.9637 19.9684Z" fill="#F3BA2F"/>
<path d="M24.5809 19.9681L19.9837 15.3867L16.5872 18.7674L16.208 19.1624L15.4023 19.9681L19.9837 24.5494L24.5967 19.9681" fill="#F3BA2F"/>
</svg>
