<svg width="30" height="30" viewBox="0 0 30 30" fill="none" xmlns="http://www.w3.org/2000/svg">
<path fill-rule="evenodd" clip-rule="evenodd" d="M17.8415 6.75205C16.9065 6.41773 15.9206 6.24787 14.9276 6.25002L14.9255 6.25002C13.3101 6.25085 11.7264 6.69887 10.35 7.54442C8.97354 8.38998 7.85804 9.60008 7.12706 11.0406C7.12604 11.0427 7.12502 11.0447 7.12399 11.0467C6.58255 12.0996 6.26596 13.2513 6.19177 14.4289L25.7868 6.61396C26.428 6.35822 27.1552 6.67072 27.4109 7.31196C27.6667 7.9532 27.3542 8.68035 26.7129 8.93609L5.46292 17.4111C5.1023 17.5549 4.69532 17.523 4.36152 17.3247C4.02772 17.1265 3.80499 16.7844 3.75875 16.3989C3.70316 15.9355 3.67515 15.4691 3.67486 15.0024C3.66937 13.2302 4.08924 11.4826 4.89919 9.90636C5.83904 8.05554 7.27266 6.50081 9.04141 5.41425C10.8108 4.32729 12.8466 3.75129 14.9232 3.75002C16.2045 3.74737 17.4766 3.9666 18.6832 4.398C19.3333 4.63042 19.6718 5.34581 19.4394 5.99586C19.207 6.64592 18.4916 6.98447 17.8415 6.75205Z" fill="black"/>
<path fill-rule="evenodd" clip-rule="evenodd" d="M25.638 12.6749C25.9717 12.8728 26.1946 13.2145 26.2413 13.5996C26.2975 14.0638 26.3256 14.531 26.3253 14.9986C26.3307 16.7704 25.9108 18.5177 25.101 20.0936C23.8639 22.5304 21.782 24.4336 19.2442 25.4477C16.7054 26.4622 13.8839 26.5174 11.3073 25.603C10.6567 25.3721 10.3164 24.6576 10.5473 24.007C10.7782 23.3563 11.4928 23.0161 12.1434 23.247C14.1474 23.9582 16.3419 23.9152 18.3166 23.1262C20.2913 22.3371 21.911 20.8559 22.8731 18.9595C22.8741 18.9574 22.8752 18.9554 22.8762 18.9534C23.4176 17.9004 23.7342 16.7487 23.8084 15.5711L4.21339 23.3861C3.57215 23.6418 2.84501 23.3293 2.58927 22.6881C2.33353 22.0468 2.64603 21.3197 3.28727 21.0639L24.5373 12.5889C24.8976 12.4452 25.3043 12.477 25.638 12.6749Z" fill="#2CA9BC"/>
</svg>
